<?xml version="1.0" encoding="UTF-8" standalone="no"?>
<!-- Created with Inkscape (http://www.inkscape.org/) -->

<svg
   xmlns:dc="http://purl.org/dc/elements/1.1/"
   xmlns:cc="http://creativecommons.org/ns#"
   xmlns:rdf="http://www.w3.org/1999/02/22-rdf-syntax-ns#"
   xmlns:svg="http://www.w3.org/2000/svg"
   xmlns="http://www.w3.org/2000/svg"
   xmlns:sodipodi="http://sodipodi.sourceforge.net/DTD/sodipodi-0.dtd"
   xmlns:inkscape="http://www.inkscape.org/namespaces/inkscape"
   width="210mm"
   height="297mm"
   viewBox="0 0 210 297"
   version="1.1"
   id="svg8"
   inkscape:version="0.92.2 5c3e80d, 2017-08-06"
   sodipodi:docname="logo4.svg">
  <defs
     id="defs2" />
  <sodipodi:namedview
     id="base"
     pagecolor="#ffffff"
     bordercolor="#666666"
     borderopacity="1.0"
     inkscape:pageopacity="0.0"
     inkscape:pageshadow="2"
     inkscape:zoom="0.94"
     inkscape:cx="470.62836"
     inkscape:cy="259.08602"
     inkscape:document-units="mm"
     inkscape:current-layer="layer1"
     showgrid="false"
     inkscape:snap-global="false"
     inkscape:window-width="1204"
     inkscape:window-height="720"
     inkscape:window-x="149"
     inkscape:window-y="70"
     inkscape:window-maximized="0" />
  <metadata
     id="metadata5">
    <rdf:RDF>
      <cc:Work
         rdf:about="">
        <dc:format>image/svg+xml</dc:format>
        <dc:type
           rdf:resource="http://purl.org/dc/dcmitype/StillImage" />
        <dc:title></dc:title>
      </cc:Work>
    </rdf:RDF>
  </metadata>
  <g
     inkscape:label="Layer 1"
     inkscape:groupmode="layer"
     id="layer1">
    <path
       style="fill:#000000;stroke-width:0.27966642"
       d="m 58.388439,296.27617 c -5.485031,-1.88681 -8.373411,-6.62664 -8.338238,-13.68304 0.02383,-4.7812 1.200683,-7.86366 4.020409,-10.53044 1.801499,-1.70378 3.21611,-2.47055 5.590893,-3.03044 4.268517,-1.00637 8.532443,0.0153 11.098248,2.65916 1.232951,1.27048 3.278618,4.97736 2.92314,5.29692 -0.251056,0.2257 -4.629318,1.44755 -4.750989,1.32588 -0.03873,-0.0387 -0.429291,-0.75739 -0.867917,-1.59701 -2.6181,-5.01162 -9.73532,-3.97101 -11.714555,1.71278 -0.704539,2.02323 -0.714126,6.50485 -0.01823,8.52855 1.055663,3.06999 3.521622,4.93351 6.528435,4.93351 2.604777,0 4.827733,-1.47661 6.155308,-4.08869 0.244699,-0.48147 0.490615,-0.92661 0.546473,-0.98921 0.246711,-0.2765 4.57704,1.82065 4.579256,2.21769 0.0033,0.58241 -1.774039,3.25595 -3.026195,4.55225 -2.156615,2.23264 -4.941826,3.27735 -8.698261,3.26268 -1.649878,-0.007 -2.904512,-0.18419 -4.027772,-0.57059 z"
       id="path114"
       inkscape:connector-curvature="0" />
    <path
       style="fill:#000000;stroke-width:0.27966642"
       d="m 123.59824,296.31947 c -0.87116,-0.27861 -2.03324,-0.78423 -2.58238,-1.12363 -1.43608,-0.88755 -3.71252,-3.54585 -4.54718,-5.30998 -1.94173,-4.104 -1.84634,-10.57664 0.21553,-14.62484 0.96508,-1.89482 3.71304,-4.54069 5.59132,-5.38362 4.61336,-2.07035 10.35072,-1.39784 13.35291,1.56518 1.90034,1.87553 3.80324,5.43168 3.04871,5.69744 -0.93987,0.33104 -4.73828,1.29325 -4.78256,1.21153 -0.0277,-0.0512 -0.3893,-0.80833 -0.80335,-1.6823 -1.17715,-2.48469 -3.70191,-3.65494 -6.5219,-3.02296 -3.86675,0.86655 -5.94207,4.50797 -5.65888,9.92921 0.27323,5.23083 2.95607,8.35731 7.1468,8.32861 2.73291,-0.0187 4.3098,-1.18389 6.37267,-4.70877 l 0.29844,-0.50995 2.28482,0.96028 c 1.25665,0.52815 2.28646,1.05885 2.28847,1.17932 0.002,0.12048 -0.31538,0.84863 -0.70531,1.61812 -1.41533,2.79302 -4.14876,5.08472 -7.11577,5.96582 -2.03842,0.60535 -5.84485,0.56215 -7.88234,-0.0895 z"
       id="path112" />
    <path
       style="fill:#000000;stroke-width:0.27966642"
       d="m 11.053072,269.16496 c -0.947721,0.0128 -1.7594264,0.0816 -1.9709391,0.21807 -0.3072911,0.19831 -9.05061028,25.86315 -9.05061028,26.56687 0,0.25167 0.73017418,0.34673 2.66288658,0.34673 h 2.6628865 l 0.2625161,-0.62942 c 0.1444699,-0.34607 0.524714,-1.54151 0.8449099,-2.65668 l 0.5818764,-2.02726 h 4.8627529 4.862752 l 0.79685,2.58691 0.796851,2.58694 2.718697,0.0801 c 1.788942,0.0527 2.718697,-0.0224 2.718697,-0.2186 0,-0.48117 -8.734652,-26.11573 -9.029423,-26.49966 -0.184481,-0.2403 -2.141169,-0.37534 -3.720703,-0.35399 z m 0.895552,5.78363 1.295012,4.31189 c 0.712471,2.37136 1.485169,4.97192 1.717208,5.77948 l 0.422196,1.46865 h -3.480924 c -1.914416,0 -3.4809247,-0.076 -3.4809247,-0.16846 0,-0.14396 0.8181009,-2.79236 3.0499427,-9.87642 z"
       id="path110"
       inkscape:connector-curvature="0" />
    <path
       style="fill:#000000;stroke-width:0.27966642"
       d="m 30.843079,269.21613 c -0.512175,-0.003 -0.944578,7.4e-4 -1.258839,0.0119 l -2.285133,0.0811 -0.07286,13.49375 -0.07235,13.49375 h 2.659269 2.659784 v -4.89376 -4.89426 h 2.072225 2.072743 l 2.101162,3.84524 c 1.155668,2.11498 2.322711,4.31747 2.593642,4.89426 l 0.492477,1.04852 h 3.024621 c 1.663494,0 3.024621,-0.0482 3.024621,-0.10747 0,-0.0593 -0.795456,-1.53805 -1.767334,-3.2861 -0.971881,-1.74805 -2.284669,-4.14806 -2.917651,-5.33302 l -1.150834,-2.1544 0.589111,-0.18706 c 0.906491,-0.28771 3.273435,-2.62956 3.928443,-3.8871 0.698288,-1.34061 0.825717,-4.70347 0.241845,-6.37325 -0.591137,-1.69059 -2.406279,-3.75352 -4.032313,-4.5832 l -1.463477,-0.74723 -4.706173,-0.24495 c -1.941279,-0.10123 -4.196455,-0.16836 -5.732981,-0.17672 z m 1.629873,4.7072 h 2.987932 c 4.596347,0 6.240962,1.06154 6.240962,4.02818 0,1.76972 -0.461689,2.5867 -1.838129,3.25302 -0.888727,0.43024 -1.982419,0.61916 -4.291729,0.74052 l -3.099036,0.1628 v -4.09226 z"
       id="path106"
       inkscape:connector-curvature="0" />
    <path
       style="fill:#000000;stroke-width:0.27966642"
       d="m 77.778707,282.73296 v -13.58481 l 2.586914,0.0804 2.586915,0.0804 0.139833,5.034 0.139833,5.034 h 5.313662 5.313656 l 0.139833,-5.034 0.139844,-5.034 h 2.656829 2.65683 v 13.42399 13.42399 h -2.65683 -2.656829 l -0.07549,-5.94291 -0.07549,-5.94291 h -5.442375 -5.442369 l -0.07548,5.94291 -0.07548,5.94291 -2.586915,0.0804 -2.586914,0.0804 z"
       id="path102" />
    <path
       style="fill:#000000;stroke-width:0.27966642"
       d="m 142.72854,282.80286 0.0727,-13.49391 h 2.517 2.517 l 0.0726,13.49391 0.0727,13.49391 h -2.66221 -2.6622 z"
       id="path100" />
    <path
       style="fill:#000000;stroke-width:0.27966642"
       d="m 153.98801,269.30913 -0.0729,13.49375 -0.0724,13.49375 h 2.65927 2.65979 v -4.89376 -4.89426 h 2.17558 2.17609 l 1.06815,2.16731 c 0.58751,1.19208 1.75492,3.39455 2.59416,4.89426 l 1.526,2.72645 h 2.92076 c 1.60642,0 2.92075,-0.0705 2.92075,-0.15708 0,-0.14198 -0.93471,-1.87299 -4.62401,-8.56176 l -1.18442,-2.14715 0.82682,-0.3421 c 1.39189,-0.57653 3.21147,-2.63811 3.8716,-4.38629 1.18897,-3.14873 0.18065,-6.9786 -2.44688,-9.29143 -1.95423,-1.72019 -3.09624,-1.93873 -10.56628,-2.02623 z m 5.17385,4.55684 3.44785,0.0987 3.44785,0.0987 1.00407,0.76583 c 2.27193,1.73337 2.0182,5.29707 -0.46095,6.47351 -0.65608,0.31134 -2.08678,0.52975 -4.21628,0.64389 l -3.22254,0.17259 v -4.12687 z"
       id="path98"
       inkscape:connector-curvature="0" />
    <path
       style="fill:#000000;stroke-width:0.27966642"
       d="m 188.22727,269.1784 c -0.69913,0.008 -1.51735,0.0624 -2.38694,0.1669 l -1.42833,0.17209 -0.47594,1.57355 c -0.26198,0.86564 -2.23111,6.75111 -4.37545,13.07878 -2.14436,6.32767 -3.89847,11.64474 -3.89847,11.81581 0,0.20739 0.92231,0.3111 2.76624,0.3111 h 2.76624 l 0.18604,-0.76893 c 0.10239,-0.42302 0.43723,-1.62163 0.74362,-2.6634 l 0.55707,-1.89447 4.91702,0.0765 4.91701,0.0765 0.73484,2.51717 0.73535,2.51717 2.72387,0.0801 c 2.21832,0.0652 2.72438,0.005 2.72438,-0.32195 0,-0.56621 -8.68024,-25.97078 -9.01909,-26.39631 -0.18803,-0.23614 -1.02225,-0.3537 -2.18746,-0.34055 z m -0.65836,5.57072 1.62626,5.39036 c 0.89457,2.9646 1.69092,5.61057 1.76991,5.87976 l 0.14367,0.48937 h -3.41943 -3.41995 l 0.17363,-0.909 c 0.0955,-0.49991 0.83771,-3.1459 1.64952,-5.87973 z"
       id="path94"
       inkscape:connector-curvature="0" />
  </g>
</svg>
